<svg width="111" height="28" viewBox="0 0 111 28" fill="none" xmlns="http://www.w3.org/2000/svg">
<rect x="0.5" y="0.5" width="110" height="27" rx="13.5" stroke="black"/>
<path d="M19.4375 16.4375C19.4375 17 19.3229 17.5026 19.0938 17.9453C18.8698 18.388 18.5599 18.7552 18.1641 19.0469C17.7057 19.3906 17.2005 19.6354 16.6484 19.7812C16.1016 19.9271 15.4062 20 14.5625 20H9.48438V8.36719H14C14.9375 8.36719 15.6224 8.39844 16.0547 8.46094C16.4922 8.52344 16.9245 8.66146 17.3516 8.875C17.7943 9.09896 18.1224 9.40104 18.3359 9.78125C18.5547 10.1562 18.6641 10.5859 18.6641 11.0703C18.6641 11.6328 18.5156 12.1302 18.2188 12.5625C17.9219 12.9896 17.5026 13.3229 16.9609 13.5625V13.625C17.7214 13.776 18.3229 14.0885 18.7656 14.5625C19.2135 15.0365 19.4375 15.6615 19.4375 16.4375ZM15.5938 11.6562C15.5938 11.4635 15.5443 11.2708 15.4453 11.0781C15.3516 10.8854 15.1823 10.7422 14.9375 10.6484C14.7188 10.5651 14.4453 10.5208 14.1172 10.5156C13.7943 10.5052 13.3385 10.5 12.75 10.5H12.4688V12.9609H12.9375C13.4115 12.9609 13.8151 12.9531 14.1484 12.9375C14.4818 12.9219 14.7448 12.8698 14.9375 12.7812C15.2083 12.6615 15.3854 12.5078 15.4688 12.3203C15.5521 12.1276 15.5938 11.9062 15.5938 11.6562ZM16.3281 16.3906C16.3281 16.0208 16.2552 15.737 16.1094 15.5391C15.9688 15.3359 15.7266 15.1849 15.3828 15.0859C15.1484 15.0182 14.8255 14.9818 14.4141 14.9766C14.0026 14.9714 13.5729 14.9688 13.125 14.9688H12.4688V17.8672H12.6875C13.5312 17.8672 14.1354 17.8646 14.5 17.8594C14.8646 17.8542 15.2005 17.7865 15.5078 17.6562C15.8203 17.526 16.0339 17.3542 16.1484 17.1406C16.2682 16.9219 16.3281 16.6719 16.3281 16.3906ZM36.2969 20H33.0469L30.6953 16.5234H29.7969V20H26.9844V11.2266H29.7969V14.75C30.3177 14.7448 30.6771 14.6901 30.875 14.5859C31.0729 14.4766 31.3021 14.1927 31.5625 13.7344C31.6406 13.599 31.7344 13.4245 31.8438 13.2109C31.9531 12.9974 32.0391 12.8333 32.1016 12.7188C32.388 12.2083 32.7214 11.8307 33.1016 11.5859C33.487 11.3359 34.0208 11.2109 34.7031 11.2109C34.901 11.2109 35.1094 11.2135 35.3281 11.2188C35.5521 11.224 35.7031 11.2266 35.7812 11.2266V13.5703H35.0156C34.7031 13.5703 34.4531 13.6484 34.2656 13.8047C34.0833 13.9609 33.9245 14.1927 33.7891 14.5C33.6745 14.7552 33.5703 14.9583 33.4766 15.1094C33.3828 15.2552 33.263 15.3802 33.1172 15.4844L36.2969 20ZM46.6875 15.6172C46.6875 17.0599 46.2656 18.1979 45.4219 19.0312C44.5833 19.8594 43.4036 20.2734 41.8828 20.2734C40.362 20.2734 39.1797 19.8594 38.3359 19.0312C37.4974 18.1979 37.0781 17.0599 37.0781 15.6172C37.0781 14.1641 37.5 13.0234 38.3438 12.1953C39.1927 11.3672 40.3724 10.9531 41.8828 10.9531C43.4141 10.9531 44.5964 11.3698 45.4297 12.2031C46.2682 13.0365 46.6875 14.1745 46.6875 15.6172ZM43.2266 17.75C43.4089 17.526 43.5443 17.2578 43.6328 16.9453C43.7266 16.6276 43.7734 16.1901 43.7734 15.6328C43.7734 15.1172 43.7266 14.6849 43.6328 14.3359C43.5391 13.987 43.4089 13.7083 43.2422 13.5C43.0755 13.2865 42.875 13.1354 42.6406 13.0469C42.4062 12.9583 42.1536 12.9141 41.8828 12.9141C41.612 12.9141 41.3698 12.9505 41.1562 13.0234C40.9479 13.0964 40.7474 13.2422 40.5547 13.4609C40.3828 13.6641 40.2448 13.9427 40.1406 14.2969C40.0417 14.651 39.9922 15.0964 39.9922 15.6328C39.9922 16.112 40.0365 16.5286 40.125 16.8828C40.2135 17.2318 40.3438 17.513 40.5156 17.7266C40.6823 17.9297 40.8802 18.0781 41.1094 18.1719C41.3438 18.2656 41.6094 18.3125 41.9062 18.3125C42.1615 18.3125 42.4036 18.2708 42.6328 18.1875C42.8672 18.099 43.0651 17.9531 43.2266 17.75ZM57.8594 15.4922C57.8594 16.2161 57.7474 16.875 57.5234 17.4688C57.3047 18.0625 57.0156 18.5521 56.6562 18.9375C56.2812 19.3438 55.8568 19.651 55.3828 19.8594C54.9089 20.0677 54.401 20.1719 53.8594 20.1719C53.3594 20.1719 52.9349 20.1172 52.5859 20.0078C52.237 19.9036 51.8802 19.7552 51.5156 19.5625V23.2188H48.7031V11.2266H51.5156V12.1406C51.9479 11.7969 52.388 11.5182 52.8359 11.3047C53.2891 11.0911 53.8099 10.9844 54.3984 10.9844C55.4922 10.9844 56.3411 11.3854 56.9453 12.1875C57.5547 12.9896 57.8594 14.0911 57.8594 15.4922ZM54.9609 15.5469C54.9609 14.6927 54.8151 14.0729 54.5234 13.6875C54.2318 13.3021 53.7708 13.1094 53.1406 13.1094C52.875 13.1094 52.6016 13.151 52.3203 13.2344C52.0391 13.3125 51.7708 13.4271 51.5156 13.5781V17.9922C51.7031 18.0651 51.9036 18.112 52.1172 18.1328C52.3307 18.1536 52.5417 18.1641 52.75 18.1641C53.4948 18.1641 54.0495 17.9479 54.4141 17.5156C54.7786 17.0781 54.9609 16.4219 54.9609 15.5469ZM67.25 17.5156C67.25 18.0156 67.1276 18.4453 66.8828 18.8047C66.638 19.1589 66.3073 19.4427 65.8906 19.6562C65.4688 19.8698 65 20.0208 64.4844 20.1094C63.9688 20.1979 63.4193 20.2422 62.8359 20.2422C62.0703 20.2422 61.3906 20.1771 60.7969 20.0469C60.2083 19.9167 59.6328 19.7552 59.0703 19.5625V17.4297H59.3828C59.7943 17.6589 60.2552 17.8594 60.7656 18.0312C61.276 18.1979 61.7969 18.2812 62.3281 18.2812C62.526 18.2812 62.7604 18.2682 63.0312 18.2422C63.3073 18.2161 63.526 18.1719 63.6875 18.1094C63.9062 18.026 64.0703 17.9297 64.1797 17.8203C64.2943 17.7109 64.3516 17.5365 64.3516 17.2969C64.3516 17.0729 64.2995 16.8984 64.1953 16.7734C64.0964 16.6484 63.9583 16.5573 63.7812 16.5C63.6302 16.4479 63.4375 16.4141 63.2031 16.3984C62.974 16.3828 62.6823 16.375 62.3281 16.375H60.9844V14.5938H62.0625C62.2708 14.5938 62.5182 14.5911 62.8047 14.5859C63.0964 14.5807 63.3255 14.5573 63.4922 14.5156C63.737 14.4583 63.9115 14.3672 64.0156 14.2422C64.125 14.1172 64.1797 13.9557 64.1797 13.7578C64.1797 13.5964 64.125 13.4609 64.0156 13.3516C63.9062 13.2422 63.763 13.1562 63.5859 13.0938C63.4349 13.0417 63.2578 13.0026 63.0547 12.9766C62.8516 12.9505 62.638 12.9375 62.4141 12.9375C62.0443 12.9375 61.612 13.0026 61.1172 13.1328C60.6276 13.263 60.1927 13.4245 59.8125 13.6172H59.5078V11.5156C59.8307 11.4167 60.3099 11.3021 60.9453 11.1719C61.5859 11.0417 62.2396 10.9766 62.9062 10.9766C63.4896 10.9766 64.0208 11.0208 64.5 11.1094C64.9792 11.1979 65.4036 11.3307 65.7734 11.5078C66.1641 11.7005 66.4792 11.9505 66.7188 12.2578C66.9583 12.5651 67.0781 12.9479 67.0781 13.4062C67.0781 13.875 66.9167 14.2943 66.5938 14.6641C66.276 15.0339 65.8932 15.2812 65.4453 15.4062V15.4766C65.9609 15.612 66.3906 15.849 66.7344 16.1875C67.0781 16.5208 67.25 16.9635 67.25 17.5156ZM78.1641 20H75.4375V14.6328L71.625 20H69.2969V11.2266H72.0234V16.0312L75.5547 11.2266H78.1641V20ZM89.6875 20H86.875V16.2578H83.6406V20H80.8281V11.2266H83.6406V14.25H86.875V11.2266H89.6875V20ZM96.3047 16.8984L98.3047 11.2266H101.195L96.3203 23.2188H93.2734L94.6641 19.9375L91.25 11.2266H94.2031L96.3047 16.8984Z" fill="#4F0B26"/>
</svg>
