<svg width="211" height="50" viewBox="0 0 211 50" fill="none" xmlns="http://www.w3.org/2000/svg">
<rect width="211" height="49.6431" rx="16" fill="#FFA100"/>
<path d="M38.8711 32H34.3711V17.9258H27.7266V32H23.2266V14.5508H38.8711V32ZM56.8359 25.2383C56.8359 26.3242 56.668 27.3125 56.332 28.2031C56.0039 29.0938 55.5703 29.8281 55.0312 30.4062C54.4688 31.0156 53.832 31.4766 53.1211 31.7891C52.4102 32.1016 51.6484 32.2578 50.8359 32.2578C50.0859 32.2578 49.4492 32.1758 48.9258 32.0117C48.4023 31.8555 47.8672 31.6328 47.3203 31.3438V36.8281H43.1016V18.8398H47.3203V20.2109C47.9688 19.6953 48.6289 19.2773 49.3008 18.957C49.9805 18.6367 50.7617 18.4766 51.6445 18.4766C53.2852 18.4766 54.5586 19.0781 55.4648 20.2812C56.3789 21.4844 56.8359 23.1367 56.8359 25.2383ZM52.4883 25.3203C52.4883 24.0391 52.2695 23.1094 51.832 22.5312C51.3945 21.9531 50.7031 21.6641 49.7578 21.6641C49.3594 21.6641 48.9492 21.7266 48.5273 21.8516C48.1055 21.9688 47.7031 22.1406 47.3203 22.3672V28.9883C47.6016 29.0977 47.9023 29.168 48.2227 29.1992C48.543 29.2305 48.8594 29.2461 49.1719 29.2461C50.2891 29.2461 51.1211 28.9219 51.668 28.2734C52.2148 27.6172 52.4883 26.6328 52.4883 25.3203ZM73.3359 25.4258C73.3359 27.5898 72.7031 29.2969 71.4375 30.5469C70.1797 31.7891 68.4102 32.4102 66.1289 32.4102C63.8477 32.4102 62.0742 31.7891 60.8086 30.5469C59.5508 29.2969 58.9219 27.5898 58.9219 25.4258C58.9219 23.2461 59.5547 21.5352 60.8203 20.293C62.0938 19.0508 63.8633 18.4297 66.1289 18.4297C68.4258 18.4297 70.1992 19.0547 71.4492 20.3047C72.707 21.5547 73.3359 23.2617 73.3359 25.4258ZM68.1445 28.625C68.418 28.2891 68.6211 27.8867 68.7539 27.418C68.8945 26.9414 68.9648 26.2852 68.9648 25.4492C68.9648 24.6758 68.8945 24.0273 68.7539 23.5039C68.6133 22.9805 68.418 22.5625 68.168 22.25C67.918 21.9297 67.6172 21.7031 67.2656 21.5703C66.9141 21.4375 66.5352 21.3711 66.1289 21.3711C65.7227 21.3711 65.3594 21.4258 65.0391 21.5352C64.7266 21.6445 64.4258 21.8633 64.1367 22.1914C63.8789 22.4961 63.6719 22.9141 63.5156 23.4453C63.3672 23.9766 63.293 24.6445 63.293 25.4492C63.293 26.168 63.3594 26.793 63.4922 27.3242C63.625 27.8477 63.8203 28.2695 64.0781 28.5898C64.3281 28.8945 64.625 29.1172 64.9688 29.2578C65.3203 29.3984 65.7188 29.4688 66.1641 29.4688C66.5469 29.4688 66.9102 29.4062 67.2539 29.2812C67.6055 29.1484 67.9023 28.9297 68.1445 28.625ZM90.082 35.2578H86.3203V31.9531H78.5625V35.2578H74.8008V29.0586H75.8906C76.4844 27.8242 76.957 26.3164 77.3086 24.5352C77.668 22.7461 77.8477 20.8477 77.8477 18.8398H88.7227V29.0586H90.082V35.2578ZM84.5273 29.0586V21.7812H81.6328C81.5 23.2266 81.2734 24.5703 80.9531 25.8125C80.6406 27.0547 80.2617 28.1367 79.8164 29.0586H84.5273ZM106.406 25.4258C106.406 27.5898 105.773 29.2969 104.508 30.5469C103.25 31.7891 101.48 32.4102 99.1992 32.4102C96.918 32.4102 95.1445 31.7891 93.8789 30.5469C92.6211 29.2969 91.9922 27.5898 91.9922 25.4258C91.9922 23.2461 92.625 21.5352 93.8906 20.293C95.1641 19.0508 96.9336 18.4297 99.1992 18.4297C101.496 18.4297 103.27 19.0547 104.52 20.3047C105.777 21.5547 106.406 23.2617 106.406 25.4258ZM101.215 28.625C101.488 28.2891 101.691 27.8867 101.824 27.418C101.965 26.9414 102.035 26.2852 102.035 25.4492C102.035 24.6758 101.965 24.0273 101.824 23.5039C101.684 22.9805 101.488 22.5625 101.238 22.25C100.988 21.9297 100.688 21.7031 100.336 21.5703C99.9844 21.4375 99.6055 21.3711 99.1992 21.3711C98.793 21.3711 98.4297 21.4258 98.1094 21.5352C97.7969 21.6445 97.4961 21.8633 97.207 22.1914C96.9492 22.4961 96.7422 22.9141 96.5859 23.4453C96.4375 23.9766 96.3633 24.6445 96.3633 25.4492C96.3633 26.168 96.4297 26.793 96.5625 27.3242C96.6953 27.8477 96.8906 28.2695 97.1484 28.5898C97.3984 28.8945 97.6953 29.1172 98.0391 29.2578C98.3906 29.3984 98.7891 29.4688 99.2344 29.4688C99.6172 29.4688 99.9805 29.4062 100.324 29.2812C100.676 29.1484 100.973 28.9297 101.215 28.625ZM122.473 32H118.254V21.7812H114.773C114.75 22.3672 114.73 22.8242 114.715 23.1523C114.707 23.4727 114.695 23.8477 114.68 24.2773C114.625 25.5352 114.52 26.5586 114.363 27.3477C114.207 28.1367 114.008 28.7812 113.766 29.2812C113.531 29.7891 113.277 30.1914 113.004 30.4883C112.738 30.7852 112.469 31.043 112.195 31.2617C111.883 31.5117 111.473 31.7109 110.965 31.8594C110.465 32.0078 109.98 32.082 109.512 32.082C109.145 32.082 108.773 32.0664 108.398 32.0352C108.023 32.0117 107.801 32 107.73 32V28.625H107.859C107.891 28.625 107.945 28.6289 108.023 28.6367C108.102 28.6445 108.18 28.6484 108.258 28.6484C108.461 28.6484 108.668 28.6289 108.879 28.5898C109.098 28.5508 109.277 28.4648 109.418 28.332C109.941 27.832 110.289 27.207 110.461 26.457C110.641 25.6992 110.77 24.582 110.848 23.1055C110.879 22.5586 110.91 21.9336 110.941 21.2305C110.973 20.5273 111 19.7305 111.023 18.8398H122.473V32ZM147.926 32H143.074L139.758 26.7852H138.562V32H134.367V26.7852H133.172L129.855 32H125.004L129.539 25.2266C129.32 25.0625 129.145 24.8828 129.012 24.6875C128.879 24.4922 128.719 24.1797 128.531 23.75C128.297 23.2266 128.039 22.8633 127.758 22.6602C127.477 22.457 127.121 22.3555 126.691 22.3555H125.543V18.8398C125.676 18.8398 125.895 18.8359 126.199 18.8281C126.512 18.8203 126.832 18.8164 127.16 18.8164C128.246 18.8164 129.062 19.0117 129.609 19.4023C130.164 19.793 130.648 20.3516 131.062 21.0781C131.156 21.25 131.281 21.4922 131.438 21.8047C131.602 22.1172 131.746 22.3828 131.871 22.6016C132.285 23.3203 132.629 23.7539 132.902 23.9023C133.176 24.0508 133.664 24.125 134.367 24.125V18.8398H138.562V24.125C139.336 24.1172 139.848 24.0312 140.098 23.8672C140.355 23.7031 140.676 23.2812 141.059 22.6016C141.176 22.3984 141.316 22.1367 141.48 21.8164C141.645 21.4961 141.773 21.25 141.867 21.0781C142.219 20.4141 142.684 19.8711 143.262 19.4492C143.84 19.0273 144.676 18.8164 145.77 18.8164C146.066 18.8164 146.379 18.8203 146.707 18.8281C147.043 18.8359 147.27 18.8398 147.387 18.8398V22.3555H146.238C145.801 22.3555 145.438 22.4648 145.148 22.6836C144.867 22.8945 144.617 23.25 144.398 23.75C144.227 24.1328 144.07 24.4375 143.93 24.6641C143.789 24.8828 143.609 25.0703 143.391 25.2266L147.926 32ZM163.746 32H159.656V23.9492L153.938 32H150.445V18.8398H154.535V26.0469L159.832 18.8398H163.746V32ZM178.477 21.6992H174.281V32H170.062V21.6992H165.867V18.8398H178.477V21.6992ZM189.047 27.5938C189.047 27.0312 188.879 26.6094 188.543 26.3281C188.207 26.0469 187.723 25.9062 187.09 25.9062H184.793V29.3398H187.09C187.512 29.3398 187.855 29.2812 188.121 29.1641C188.387 29.0391 188.582 28.8867 188.707 28.707C188.84 28.5352 188.93 28.3555 188.977 28.168C189.023 27.9805 189.047 27.7891 189.047 27.5938ZM193.383 27.5586C193.383 28.2305 193.25 28.8516 192.984 29.4219C192.719 29.9922 192.371 30.457 191.941 30.8164C191.41 31.2461 190.859 31.5508 190.289 31.7305C189.727 31.9102 188.965 32 188.004 32H180.586V18.8398H184.793V23.2344H188.016C188.961 23.2344 189.723 23.3047 190.301 23.4453C190.887 23.5781 191.441 23.8398 191.965 24.2305C192.434 24.582 192.785 25.0547 193.02 25.6484C193.262 26.2344 193.383 26.8711 193.383 27.5586Z" fill="white"/>
</svg>
