<svg width="111" height="28" viewBox="0 0 111 28" fill="none" xmlns="http://www.w3.org/2000/svg">
<rect x="0.5" y="0.5" width="110" height="27" rx="13.5" stroke="#4F0B26"/>
<path d="M17.5625 20H14.6406V12.2578L9.8125 20H6.95312V8.36719H9.875V15.375L14.3672 8.36719H17.5625V20ZM27.6875 17.5156C27.6875 18.0156 27.5651 18.4453 27.3203 18.8047C27.0755 19.1589 26.7448 19.4427 26.3281 19.6562C25.9062 19.8698 25.4375 20.0208 24.9219 20.1094C24.4062 20.1979 23.8568 20.2422 23.2734 20.2422C22.5078 20.2422 21.8281 20.1771 21.2344 20.0469C20.6458 19.9167 20.0703 19.7552 19.5078 19.5625V17.4297H19.8203C20.2318 17.6589 20.6927 17.8594 21.2031 18.0312C21.7135 18.1979 22.2344 18.2812 22.7656 18.2812C22.9635 18.2812 23.1979 18.2682 23.4688 18.2422C23.7448 18.2161 23.9635 18.1719 24.125 18.1094C24.3438 18.026 24.5078 17.9297 24.6172 17.8203C24.7318 17.7109 24.7891 17.5365 24.7891 17.2969C24.7891 17.0729 24.737 16.8984 24.6328 16.7734C24.5339 16.6484 24.3958 16.5573 24.2188 16.5C24.0677 16.4479 23.875 16.4141 23.6406 16.3984C23.4115 16.3828 23.1198 16.375 22.7656 16.375H21.4219V14.5938H22.5C22.7083 14.5938 22.9557 14.5911 23.2422 14.5859C23.5339 14.5807 23.763 14.5573 23.9297 14.5156C24.1745 14.4583 24.349 14.3672 24.4531 14.2422C24.5625 14.1172 24.6172 13.9557 24.6172 13.7578C24.6172 13.5964 24.5625 13.4609 24.4531 13.3516C24.3438 13.2422 24.2005 13.1562 24.0234 13.0938C23.8724 13.0417 23.6953 13.0026 23.4922 12.9766C23.2891 12.9505 23.0755 12.9375 22.8516 12.9375C22.4818 12.9375 22.0495 13.0026 21.5547 13.1328C21.0651 13.263 20.6302 13.4245 20.25 13.6172H19.9453V11.5156C20.2682 11.4167 20.7474 11.3021 21.3828 11.1719C22.0234 11.0417 22.6771 10.9766 23.3438 10.9766C23.9271 10.9766 24.4583 11.0208 24.9375 11.1094C25.4167 11.1979 25.8411 11.3307 26.2109 11.5078C26.6016 11.7005 26.9167 11.9505 27.1562 12.2578C27.3958 12.5651 27.5156 12.9479 27.5156 13.4062C27.5156 13.875 27.3542 14.2943 27.0312 14.6641C26.7135 15.0339 26.3307 15.2812 25.8828 15.4062V15.4766C26.3984 15.612 26.8281 15.849 27.1719 16.1875C27.5156 16.5208 27.6875 16.9635 27.6875 17.5156ZM37.7109 12.6172C38.0651 12.9505 38.3464 13.3724 38.5547 13.8828C38.763 14.388 38.8672 15.0026 38.8672 15.7266C38.8672 17.1068 38.4349 18.2109 37.5703 19.0391C36.7109 19.862 35.5469 20.2734 34.0781 20.2734C32.4635 20.2734 31.263 19.7812 30.4766 18.7969C29.6953 17.8125 29.3047 16.3385 29.3047 14.375C29.3047 14.0469 29.3255 13.6693 29.3672 13.2422C29.4141 12.8099 29.5026 12.3359 29.6328 11.8203C29.763 11.3099 29.9219 10.849 30.1094 10.4375C30.3021 10.026 30.5703 9.65625 30.9141 9.32812C31.3464 8.90625 31.8932 8.59115 32.5547 8.38281C33.2161 8.17448 33.9635 8.03125 34.7969 7.95312C35.3125 7.90625 35.9297 7.86719 36.6484 7.83594C37.3672 7.80469 37.8958 7.78385 38.2344 7.77344V9.85938C37.8906 9.875 37.5755 9.89062 37.2891 9.90625C37.0026 9.91667 36.6667 9.9349 36.2812 9.96094C36.0104 9.98177 35.7031 10.0052 35.3594 10.0312C35.0156 10.0573 34.6849 10.0964 34.3672 10.1484C34.0443 10.2057 33.7422 10.2995 33.4609 10.4297C33.1797 10.5599 32.9505 10.7318 32.7734 10.9453C32.6432 11.1016 32.5312 11.3177 32.4375 11.5938C32.3438 11.8646 32.2786 12.1875 32.2422 12.5625C32.6536 12.2812 33.0885 12.0599 33.5469 11.8984C34.0104 11.7318 34.513 11.6484 35.0547 11.6484C35.5651 11.6484 36.0469 11.7266 36.5 11.8828C36.9531 12.0391 37.3568 12.2839 37.7109 12.6172ZM35.3359 17.8203C35.5234 17.6172 35.6719 17.3698 35.7812 17.0781C35.8906 16.7812 35.9453 16.362 35.9453 15.8203C35.9453 15.1901 35.7656 14.6849 35.4062 14.3047C35.0521 13.9193 34.5859 13.7266 34.0078 13.7266C33.7161 13.7266 33.4297 13.7552 33.1484 13.8125C32.8724 13.8646 32.5599 13.9818 32.2109 14.1641C32.2109 14.2161 32.2083 14.2917 32.2031 14.3906C32.2031 14.4844 32.2031 14.5703 32.2031 14.6484C32.2031 15.362 32.2318 15.9297 32.2891 16.3516C32.3516 16.7682 32.4661 17.1354 32.6328 17.4531C32.7786 17.7292 32.9792 17.9427 33.2344 18.0938C33.4896 18.2396 33.7812 18.3125 34.1094 18.3125C34.3073 18.3125 34.5182 18.276 34.7422 18.2031C34.9714 18.125 35.1693 17.9974 35.3359 17.8203ZM50.0469 15.4922C50.0469 16.2161 49.9349 16.875 49.7109 17.4688C49.4922 18.0625 49.2031 18.5521 48.8438 18.9375C48.4688 19.3438 48.0443 19.651 47.5703 19.8594C47.0964 20.0677 46.5885 20.1719 46.0469 20.1719C45.5469 20.1719 45.1224 20.1172 44.7734 20.0078C44.4245 19.9036 44.0677 19.7552 43.7031 19.5625V23.2188H40.8906V11.2266H43.7031V12.1406C44.1354 11.7969 44.5755 11.5182 45.0234 11.3047C45.4766 11.0911 45.9974 10.9844 46.5859 10.9844C47.6797 10.9844 48.5286 11.3854 49.1328 12.1875C49.7422 12.9896 50.0469 14.0911 50.0469 15.4922ZM47.1484 15.5469C47.1484 14.6927 47.0026 14.0729 46.7109 13.6875C46.4193 13.3021 45.9583 13.1094 45.3281 13.1094C45.0625 13.1094 44.7891 13.151 44.5078 13.2344C44.2266 13.3125 43.9583 13.4271 43.7031 13.5781V17.9922C43.8906 18.0651 44.0911 18.112 44.3047 18.1328C44.5182 18.1536 44.7292 18.1641 44.9375 18.1641C45.6823 18.1641 46.237 17.9479 46.6016 17.5156C46.9661 17.0781 47.1484 16.4219 47.1484 15.5469ZM57.3906 17.7109V15.8828C57.0104 15.9141 56.599 15.9583 56.1562 16.0156C55.7135 16.0677 55.3776 16.1302 55.1484 16.2031C54.8672 16.2917 54.651 16.4219 54.5 16.5938C54.3542 16.7604 54.2812 16.9818 54.2812 17.2578C54.2812 17.4401 54.2969 17.5885 54.3281 17.7031C54.3594 17.8177 54.4375 17.9271 54.5625 18.0312C54.6823 18.1354 54.8255 18.2135 54.9922 18.2656C55.1589 18.3125 55.4193 18.3359 55.7734 18.3359C56.0547 18.3359 56.3385 18.2786 56.625 18.1641C56.9167 18.0495 57.1719 17.8984 57.3906 17.7109ZM57.3906 19.0703C57.2396 19.1849 57.0521 19.3229 56.8281 19.4844C56.6042 19.6458 56.3932 19.7734 56.1953 19.8672C55.9193 19.9922 55.6328 20.0833 55.3359 20.1406C55.0391 20.2031 54.7135 20.2344 54.3594 20.2344C53.526 20.2344 52.8281 19.9766 52.2656 19.4609C51.7031 18.9453 51.4219 18.2865 51.4219 17.4844C51.4219 16.8438 51.5651 16.3203 51.8516 15.9141C52.138 15.5078 52.5443 15.1875 53.0703 14.9531C53.5911 14.7188 54.237 14.5521 55.0078 14.4531C55.7786 14.3542 56.5781 14.2812 57.4062 14.2344V14.1875C57.4062 13.7031 57.2083 13.3698 56.8125 13.1875C56.4167 13 55.8333 12.9062 55.0625 12.9062C54.599 12.9062 54.1042 12.9896 53.5781 13.1562C53.0521 13.3177 52.6745 13.4427 52.4453 13.5312H52.1875V11.4141C52.4844 11.3359 52.9661 11.2448 53.6328 11.1406C54.3047 11.0312 54.9766 10.9766 55.6484 10.9766C57.2474 10.9766 58.401 11.224 59.1094 11.7188C59.8229 12.2083 60.1797 12.9792 60.1797 14.0312V20H57.3906V19.0703ZM71.625 20H68.8125V16.2578H65.5781V20H62.7656V11.2266H65.5781V14.25H68.8125V11.2266H71.625V20ZM83.1406 20H80.3281V16.2578H77.0938V20H74.2812V11.2266H77.0938V14.25H80.3281V11.2266H83.1406V20ZM94.7656 15.6172C94.7656 17.0599 94.3438 18.1979 93.5 19.0312C92.6615 19.8594 91.4818 20.2734 89.9609 20.2734C88.4401 20.2734 87.2578 19.8594 86.4141 19.0312C85.5755 18.1979 85.1562 17.0599 85.1562 15.6172C85.1562 14.1641 85.5781 13.0234 86.4219 12.1953C87.2708 11.3672 88.4505 10.9531 89.9609 10.9531C91.4922 10.9531 92.6745 11.3698 93.5078 12.2031C94.3464 13.0365 94.7656 14.1745 94.7656 15.6172ZM91.3047 17.75C91.487 17.526 91.6224 17.2578 91.7109 16.9453C91.8047 16.6276 91.8516 16.1901 91.8516 15.6328C91.8516 15.1172 91.8047 14.6849 91.7109 14.3359C91.6172 13.987 91.487 13.7083 91.3203 13.5C91.1536 13.2865 90.9531 13.1354 90.7188 13.0469C90.4844 12.9583 90.2318 12.9141 89.9609 12.9141C89.6901 12.9141 89.4479 12.9505 89.2344 13.0234C89.026 13.0964 88.8255 13.2422 88.6328 13.4609C88.4609 13.6641 88.3229 13.9427 88.2188 14.2969C88.1198 14.651 88.0703 15.0964 88.0703 15.6328C88.0703 16.112 88.1146 16.5286 88.2031 16.8828C88.2917 17.2318 88.4219 17.513 88.5938 17.7266C88.7604 17.9297 88.9583 18.0781 89.1875 18.1719C89.4219 18.2656 89.6875 18.3125 89.9844 18.3125C90.2396 18.3125 90.4818 18.2708 90.7109 18.1875C90.9453 18.099 91.1432 17.9531 91.3047 17.75ZM105.422 16.1328H98.9844C99.026 16.8203 99.2865 17.3464 99.7656 17.7109C100.25 18.0755 100.961 18.2578 101.898 18.2578C102.492 18.2578 103.068 18.151 103.625 17.9375C104.182 17.724 104.622 17.4948 104.945 17.25H105.258V19.5078C104.622 19.763 104.023 19.9479 103.461 20.0625C102.898 20.1771 102.276 20.2344 101.594 20.2344C99.8333 20.2344 98.4844 19.8385 97.5469 19.0469C96.6094 18.2552 96.1406 17.1276 96.1406 15.6641C96.1406 14.2161 96.5833 13.0703 97.4688 12.2266C98.3594 11.3776 99.5781 10.9531 101.125 10.9531C102.552 10.9531 103.625 11.3151 104.344 12.0391C105.062 12.7578 105.422 13.7943 105.422 15.1484V16.1328ZM102.625 14.4844C102.609 13.8958 102.464 13.4531 102.188 13.1562C101.911 12.8594 101.482 12.7109 100.898 12.7109C100.357 12.7109 99.9115 12.8516 99.5625 13.1328C99.2135 13.4141 99.0182 13.8646 98.9766 14.4844H102.625Z" fill="#4F0B26"/>
</svg>
