<svg width="111" height="28" viewBox="0 0 111 28" fill="none" xmlns="http://www.w3.org/2000/svg">
<rect width="111" height="28" rx="14" fill="#FFA100"/>
<path d="M30.4062 16.2656C30.4062 16.8333 30.2969 17.3568 30.0781 17.8359C29.8646 18.3099 29.5703 18.6979 29.1953 19C28.7214 19.3802 28.2266 19.6432 27.7109 19.7891C27.2005 19.9297 26.5807 20 25.8516 20H20.4844V8.36719H29.5234V10.6172H23.4688V12.7031H25.8984C26.7109 12.7031 27.375 12.763 27.8906 12.8828C28.4062 12.9974 28.862 13.2109 29.2578 13.5234C29.6589 13.8359 29.9505 14.2318 30.1328 14.7109C30.3151 15.1849 30.4062 15.7031 30.4062 16.2656ZM27.3047 16.3516C27.3047 16.1589 27.2839 15.9766 27.2422 15.8047C27.2005 15.6328 27.1094 15.474 26.9688 15.3281C26.8281 15.1875 26.6354 15.0755 26.3906 14.9922C26.1458 14.9089 25.8073 14.8672 25.375 14.8672H23.4688V17.8281H25.375C25.7031 17.8281 25.9974 17.7865 26.2578 17.7031C26.5234 17.6198 26.7266 17.513 26.8672 17.3828C27.0078 17.2578 27.1146 17.1094 27.1875 16.9375C27.2656 16.7604 27.3047 16.5651 27.3047 16.3516ZM41.4219 15.6172C41.4219 17.0599 41 18.1979 40.1562 19.0312C39.3177 19.8594 38.138 20.2734 36.6172 20.2734C35.0964 20.2734 33.9141 19.8594 33.0703 19.0312C32.2318 18.1979 31.8125 17.0599 31.8125 15.6172C31.8125 14.1641 32.2344 13.0234 33.0781 12.1953C33.9271 11.3672 35.1068 10.9531 36.6172 10.9531C38.1484 10.9531 39.3307 11.3698 40.1641 12.2031C41.0026 13.0365 41.4219 14.1745 41.4219 15.6172ZM37.9609 17.75C38.1432 17.526 38.2786 17.2578 38.3672 16.9453C38.4609 16.6276 38.5078 16.1901 38.5078 15.6328C38.5078 15.1172 38.4609 14.6849 38.3672 14.3359C38.2734 13.987 38.1432 13.7083 37.9766 13.5C37.8099 13.2865 37.6094 13.1354 37.375 13.0469C37.1406 12.9583 36.888 12.9141 36.6172 12.9141C36.3464 12.9141 36.1042 12.9505 35.8906 13.0234C35.6823 13.0964 35.4818 13.2422 35.2891 13.4609C35.1172 13.6641 34.9792 13.9427 34.875 14.2969C34.776 14.651 34.7266 15.0964 34.7266 15.6328C34.7266 16.112 34.7708 16.5286 34.8594 16.8828C34.9479 17.2318 35.0781 17.513 35.25 17.7266C35.4167 17.9297 35.6146 18.0781 35.8438 18.1719C36.0781 18.2656 36.3438 18.3125 36.6406 18.3125C36.8958 18.3125 37.138 18.2708 37.3672 18.1875C37.6016 18.099 37.7995 17.9531 37.9609 17.75ZM52.1328 20H49.3203V13.1875H47C46.9844 13.5781 46.9714 13.8828 46.9609 14.1016C46.9557 14.3151 46.9479 14.5651 46.9375 14.8516C46.901 15.6901 46.8307 16.3724 46.7266 16.8984C46.6224 17.4245 46.4896 17.8542 46.3281 18.1875C46.1719 18.526 46.0026 18.7943 45.8203 18.9922C45.6432 19.1901 45.4635 19.362 45.2812 19.5078C45.0729 19.6745 44.7995 19.8073 44.4609 19.9062C44.1276 20.0052 43.8047 20.0547 43.4922 20.0547C43.2474 20.0547 43 20.0443 42.75 20.0234C42.5 20.0078 42.3516 20 42.3047 20V17.75H42.3906C42.4115 17.75 42.4479 17.7526 42.5 17.7578C42.5521 17.763 42.6042 17.7656 42.6562 17.7656C42.7917 17.7656 42.9297 17.7526 43.0703 17.7266C43.2161 17.7005 43.3359 17.6432 43.4297 17.5547C43.7786 17.2214 44.0104 16.8047 44.125 16.3047C44.2448 15.7995 44.3307 15.0547 44.3828 14.0703C44.4036 13.7057 44.4245 13.2891 44.4453 12.8203C44.4661 12.3516 44.4844 11.8203 44.5 11.2266H52.1328V20ZM60.4375 17.0625C60.4375 16.6875 60.3255 16.4062 60.1016 16.2188C59.8776 16.0312 59.5547 15.9375 59.1328 15.9375H57.6016V18.2266H59.1328C59.4141 18.2266 59.6432 18.1875 59.8203 18.1094C59.9974 18.026 60.1276 17.9245 60.2109 17.8047C60.2995 17.6901 60.3594 17.5703 60.3906 17.4453C60.4219 17.3203 60.4375 17.1927 60.4375 17.0625ZM63.3281 17.0391C63.3281 17.487 63.2396 17.901 63.0625 18.2812C62.8854 18.6615 62.6536 18.9714 62.3672 19.2109C62.013 19.4974 61.6458 19.7005 61.2656 19.8203C60.8906 19.9401 60.3828 20 59.7422 20H54.7969V11.2266H57.6016V14.1562H59.75C60.3802 14.1562 60.888 14.2031 61.2734 14.2969C61.6641 14.3854 62.0339 14.5599 62.3828 14.8203C62.6953 15.0547 62.9297 15.3698 63.0859 15.7656C63.2474 16.1562 63.3281 16.5807 63.3281 17.0391ZM78.5703 20H65.1875V11.2266H67.9922V18.0703H70.4766V11.2266H73.2812V18.0703H75.7656V11.2266H78.5703V20ZM89.875 16.1328H83.4375C83.4792 16.8203 83.7396 17.3464 84.2188 17.7109C84.7031 18.0755 85.4141 18.2578 86.3516 18.2578C86.9453 18.2578 87.5208 18.151 88.0781 17.9375C88.6354 17.724 89.0755 17.4948 89.3984 17.25H89.7109V19.5078C89.0755 19.763 88.4766 19.9479 87.9141 20.0625C87.3516 20.1771 86.7292 20.2344 86.0469 20.2344C84.2865 20.2344 82.9375 19.8385 82 19.0469C81.0625 18.2552 80.5938 17.1276 80.5938 15.6641C80.5938 14.2161 81.0365 13.0703 81.9219 12.2266C82.8125 11.3776 84.0312 10.9531 85.5781 10.9531C87.0052 10.9531 88.0781 11.3151 88.7969 12.0391C89.5156 12.7578 89.875 13.7943 89.875 15.1484V16.1328ZM87.0781 14.4844C87.0625 13.8958 86.9167 13.4531 86.6406 13.1562C86.3646 12.8594 85.9349 12.7109 85.3516 12.7109C84.8099 12.7109 84.3646 12.8516 84.0156 13.1328C83.6667 13.4141 83.4714 13.8646 83.4297 14.4844H87.0781Z" fill="white"/>
</svg>
