<svg width="222" height="56" viewBox="0 0 222 56" fill="none" xmlns="http://www.w3.org/2000/svg">
<rect width="222" height="56" rx="16" fill="#FFA100"/>
<path d="M26.9141 34H23.9141V24.6172H19.4844V34H16.4844V22.3672H26.9141V34ZM38.7031 29.6172C38.7031 31.0599 38.2812 32.1979 37.4375 33.0312C36.599 33.8594 35.4193 34.2734 33.8984 34.2734C32.3776 34.2734 31.1953 33.8594 30.3516 33.0312C29.513 32.1979 29.0938 31.0599 29.0938 29.6172C29.0938 28.1641 29.5156 27.0234 30.3594 26.1953C31.2083 25.3672 32.388 24.9531 33.8984 24.9531C35.4297 24.9531 36.612 25.3698 37.4453 26.2031C38.2839 27.0365 38.7031 28.1745 38.7031 29.6172ZM35.2422 31.75C35.4245 31.526 35.5599 31.2578 35.6484 30.9453C35.7422 30.6276 35.7891 30.1901 35.7891 29.6328C35.7891 29.1172 35.7422 28.6849 35.6484 28.3359C35.5547 27.987 35.4245 27.7083 35.2578 27.5C35.0911 27.2865 34.8906 27.1354 34.6562 27.0469C34.4219 26.9583 34.1693 26.9141 33.8984 26.9141C33.6276 26.9141 33.3854 26.9505 33.1719 27.0234C32.9635 27.0964 32.763 27.2422 32.5703 27.4609C32.3984 27.6641 32.2604 27.9427 32.1562 28.2969C32.0573 28.651 32.0078 29.0964 32.0078 29.6328C32.0078 30.112 32.0521 30.5286 32.1406 30.8828C32.2292 31.2318 32.3594 31.513 32.5312 31.7266C32.6979 31.9297 32.8958 32.0781 33.125 32.1719C33.3594 32.2656 33.625 32.3125 33.9219 32.3125C34.1771 32.3125 34.4193 32.2708 34.6484 32.1875C34.8828 32.099 35.0807 31.9531 35.2422 31.75ZM49.8672 36.1719H47.3594V33.9688H42.1875V36.1719H39.6797V32.0391H40.4062C40.8021 31.2161 41.1172 30.2109 41.3516 29.0234C41.5911 27.8307 41.7109 26.5651 41.7109 25.2266H48.9609V32.0391H49.8672V36.1719ZM46.1641 32.0391V27.1875H44.2344C44.1458 28.151 43.9948 29.0469 43.7812 29.875C43.5729 30.7031 43.3203 31.4245 43.0234 32.0391H46.1641ZM60.4219 30.1328H53.9844C54.026 30.8203 54.2865 31.3464 54.7656 31.7109C55.25 32.0755 55.9609 32.2578 56.8984 32.2578C57.4922 32.2578 58.0677 32.151 58.625 31.9375C59.1823 31.724 59.6224 31.4948 59.9453 31.25H60.2578V33.5078C59.6224 33.763 59.0234 33.9479 58.4609 34.0625C57.8984 34.1771 57.276 34.2344 56.5938 34.2344C54.8333 34.2344 53.4844 33.8385 52.5469 33.0469C51.6094 32.2552 51.1406 31.1276 51.1406 29.6641C51.1406 28.2161 51.5833 27.0703 52.4688 26.2266C53.3594 25.3776 54.5781 24.9531 56.125 24.9531C57.5521 24.9531 58.625 25.3151 59.3438 26.0391C60.0625 26.7578 60.4219 27.7943 60.4219 29.1484V30.1328ZM57.625 28.4844C57.6094 27.8958 57.4635 27.4531 57.1875 27.1562C56.9115 26.8594 56.4818 26.7109 55.8984 26.7109C55.3568 26.7109 54.9115 26.8516 54.5625 27.1328C54.2135 27.4141 54.0182 27.8646 53.9766 28.4844H57.625ZM71.1016 34H68.2891V27.1875H65.9688C65.9531 27.5781 65.9401 27.8828 65.9297 28.1016C65.9245 28.3151 65.9167 28.5651 65.9062 28.8516C65.8698 29.6901 65.7995 30.3724 65.6953 30.8984C65.5911 31.4245 65.4583 31.8542 65.2969 32.1875C65.1406 32.526 64.9714 32.7943 64.7891 32.9922C64.612 33.1901 64.4323 33.362 64.25 33.5078C64.0417 33.6745 63.7682 33.8073 63.4297 33.9062C63.0964 34.0052 62.7734 34.0547 62.4609 34.0547C62.2161 34.0547 61.9688 34.0443 61.7188 34.0234C61.4688 34.0078 61.3203 34 61.2734 34V31.75H61.3594C61.3802 31.75 61.4167 31.7526 61.4688 31.7578C61.5208 31.763 61.5729 31.7656 61.625 31.7656C61.7604 31.7656 61.8984 31.7526 62.0391 31.7266C62.1849 31.7005 62.3047 31.6432 62.3984 31.5547C62.7474 31.2214 62.9792 30.8047 63.0938 30.3047C63.2135 29.7995 63.2995 29.0547 63.3516 28.0703C63.3724 27.7057 63.3932 27.2891 63.4141 26.8203C63.4349 26.3516 63.4531 25.8203 63.4688 25.2266H71.1016V34ZM82.6328 34H79.9062V28.6328L76.0938 34H73.7656V25.2266H76.4922V30.0312L80.0234 25.2266H82.6328V34ZM92.4531 27.1328H89.6562V34H86.8438V27.1328H84.0469V25.2266H92.4531V27.1328ZM98.4297 34.2344C97.6641 34.2344 96.9635 34.1432 96.3281 33.9609C95.6979 33.7786 95.1484 33.4974 94.6797 33.1172C94.2161 32.737 93.8568 32.2578 93.6016 31.6797C93.3464 31.1016 93.2188 30.4245 93.2188 29.6484C93.2188 28.8307 93.3542 28.125 93.625 27.5312C93.901 26.9375 94.2839 26.4453 94.7734 26.0547C95.2474 25.6849 95.7943 25.4141 96.4141 25.2422C97.0339 25.0703 97.6771 24.9844 98.3438 24.9844C98.9427 24.9844 99.4948 25.0495 100 25.1797C100.505 25.3099 100.977 25.4792 101.414 25.6875V28.0859H101.016C100.906 27.9922 100.773 27.8828 100.617 27.7578C100.466 27.6328 100.279 27.5104 100.055 27.3906C99.8411 27.276 99.6068 27.1823 99.3516 27.1094C99.0964 27.0312 98.7995 26.9922 98.4609 26.9922C97.7109 26.9922 97.1328 27.2318 96.7266 27.7109C96.3255 28.1849 96.125 28.8307 96.125 29.6484C96.125 30.4922 96.3307 31.1328 96.7422 31.5703C97.1589 32.0078 97.7474 32.2266 98.5078 32.2266C98.862 32.2266 99.1797 32.1875 99.4609 32.1094C99.7474 32.026 99.9844 31.9297 100.172 31.8203C100.349 31.7161 100.505 31.6068 100.641 31.4922C100.776 31.3776 100.901 31.2656 101.016 31.1562H101.414V33.5547C100.971 33.763 100.508 33.9271 100.023 34.0469C99.5443 34.1719 99.013 34.2344 98.4297 34.2344ZM111.688 34H108.883V30.9531H107.625L105.523 34H102.375L104.891 30.5625C104.302 30.2969 103.854 29.9635 103.547 29.5625C103.245 29.1562 103.094 28.5964 103.094 27.8828C103.094 27.3984 103.188 26.9922 103.375 26.6641C103.568 26.3359 103.826 26.0547 104.148 25.8203C104.435 25.6224 104.771 25.474 105.156 25.375C105.547 25.276 105.982 25.2266 106.461 25.2266H111.688V34ZM108.883 29.2344V27.0469H107.219C106.833 27.0469 106.531 27.1354 106.312 27.3125C106.099 27.4844 105.992 27.737 105.992 28.0703C105.992 28.4818 106.099 28.7786 106.312 28.9609C106.526 29.1432 106.844 29.2344 107.266 29.2344H108.883ZM129.125 34H125.875L123.523 30.5234H122.625V34H119.812V25.2266H122.625V28.75C123.146 28.7448 123.505 28.6901 123.703 28.5859C123.901 28.4766 124.13 28.1927 124.391 27.7344C124.469 27.599 124.562 27.4245 124.672 27.2109C124.781 26.9974 124.867 26.8333 124.93 26.7188C125.216 26.2083 125.549 25.8307 125.93 25.5859C126.315 25.3359 126.849 25.2109 127.531 25.2109C127.729 25.2109 127.938 25.2135 128.156 25.2188C128.38 25.224 128.531 25.2266 128.609 25.2266V27.5703H127.844C127.531 27.5703 127.281 27.6484 127.094 27.8047C126.911 27.9609 126.753 28.1927 126.617 28.5C126.503 28.7552 126.398 28.9583 126.305 29.1094C126.211 29.2552 126.091 29.3802 125.945 29.4844L129.125 34ZM139.516 29.6172C139.516 31.0599 139.094 32.1979 138.25 33.0312C137.411 33.8594 136.232 34.2734 134.711 34.2734C133.19 34.2734 132.008 33.8594 131.164 33.0312C130.326 32.1979 129.906 31.0599 129.906 29.6172C129.906 28.1641 130.328 27.0234 131.172 26.1953C132.021 25.3672 133.201 24.9531 134.711 24.9531C136.242 24.9531 137.424 25.3698 138.258 26.2031C139.096 27.0365 139.516 28.1745 139.516 29.6172ZM136.055 31.75C136.237 31.526 136.372 31.2578 136.461 30.9453C136.555 30.6276 136.602 30.1901 136.602 29.6328C136.602 29.1172 136.555 28.6849 136.461 28.3359C136.367 27.987 136.237 27.7083 136.07 27.5C135.904 27.2865 135.703 27.1354 135.469 27.0469C135.234 26.9583 134.982 26.9141 134.711 26.9141C134.44 26.9141 134.198 26.9505 133.984 27.0234C133.776 27.0964 133.576 27.2422 133.383 27.4609C133.211 27.6641 133.073 27.9427 132.969 28.2969C132.87 28.651 132.82 29.0964 132.82 29.6328C132.82 30.112 132.865 30.5286 132.953 30.8828C133.042 31.2318 133.172 31.513 133.344 31.7266C133.51 31.9297 133.708 32.0781 133.938 32.1719C134.172 32.2656 134.438 32.3125 134.734 32.3125C134.99 32.3125 135.232 32.2708 135.461 32.1875C135.695 32.099 135.893 31.9531 136.055 31.75ZM150.688 29.4922C150.688 30.2161 150.576 30.875 150.352 31.4688C150.133 32.0625 149.844 32.5521 149.484 32.9375C149.109 33.3438 148.685 33.651 148.211 33.8594C147.737 34.0677 147.229 34.1719 146.688 34.1719C146.188 34.1719 145.763 34.1172 145.414 34.0078C145.065 33.9036 144.708 33.7552 144.344 33.5625V37.2188H141.531V25.2266H144.344V26.1406C144.776 25.7969 145.216 25.5182 145.664 25.3047C146.117 25.0911 146.638 24.9844 147.227 24.9844C148.32 24.9844 149.169 25.3854 149.773 26.1875C150.383 26.9896 150.688 28.0911 150.688 29.4922ZM147.789 29.5469C147.789 28.6927 147.643 28.0729 147.352 27.6875C147.06 27.3021 146.599 27.1094 145.969 27.1094C145.703 27.1094 145.43 27.151 145.148 27.2344C144.867 27.3125 144.599 27.4271 144.344 27.5781V31.9922C144.531 32.0651 144.732 32.112 144.945 32.1328C145.159 32.1536 145.37 32.1641 145.578 32.1641C146.323 32.1641 146.878 31.9479 147.242 31.5156C147.607 31.0781 147.789 30.4219 147.789 29.5469ZM160.078 31.5156C160.078 32.0156 159.956 32.4453 159.711 32.8047C159.466 33.1589 159.135 33.4427 158.719 33.6562C158.297 33.8698 157.828 34.0208 157.312 34.1094C156.797 34.1979 156.247 34.2422 155.664 34.2422C154.898 34.2422 154.219 34.1771 153.625 34.0469C153.036 33.9167 152.461 33.7552 151.898 33.5625V31.4297H152.211C152.622 31.6589 153.083 31.8594 153.594 32.0312C154.104 32.1979 154.625 32.2812 155.156 32.2812C155.354 32.2812 155.589 32.2682 155.859 32.2422C156.135 32.2161 156.354 32.1719 156.516 32.1094C156.734 32.026 156.898 31.9297 157.008 31.8203C157.122 31.7109 157.18 31.5365 157.18 31.2969C157.18 31.0729 157.128 30.8984 157.023 30.7734C156.924 30.6484 156.786 30.5573 156.609 30.5C156.458 30.4479 156.266 30.4141 156.031 30.3984C155.802 30.3828 155.51 30.375 155.156 30.375H153.812V28.5938H154.891C155.099 28.5938 155.346 28.5911 155.633 28.5859C155.924 28.5807 156.154 28.5573 156.32 28.5156C156.565 28.4583 156.74 28.3672 156.844 28.2422C156.953 28.1172 157.008 27.9557 157.008 27.7578C157.008 27.5964 156.953 27.4609 156.844 27.3516C156.734 27.2422 156.591 27.1562 156.414 27.0938C156.263 27.0417 156.086 27.0026 155.883 26.9766C155.68 26.9505 155.466 26.9375 155.242 26.9375C154.872 26.9375 154.44 27.0026 153.945 27.1328C153.456 27.263 153.021 27.4245 152.641 27.6172H152.336V25.5156C152.659 25.4167 153.138 25.3021 153.773 25.1719C154.414 25.0417 155.068 24.9766 155.734 24.9766C156.318 24.9766 156.849 25.0208 157.328 25.1094C157.807 25.1979 158.232 25.3307 158.602 25.5078C158.992 25.7005 159.307 25.9505 159.547 26.2578C159.786 26.5651 159.906 26.9479 159.906 27.4062C159.906 27.875 159.745 28.2943 159.422 28.6641C159.104 29.0339 158.721 29.2812 158.273 29.4062V29.4766C158.789 29.612 159.219 29.849 159.562 30.1875C159.906 30.5208 160.078 30.9635 160.078 31.5156ZM170.992 34H168.266V28.6328L164.453 34H162.125V25.2266H164.852V30.0312L168.383 25.2266H170.992V34ZM182.516 34H179.703V30.2578H176.469V34H173.656V25.2266H176.469V28.25H179.703V25.2266H182.516V34ZM194.141 29.6172C194.141 31.0599 193.719 32.1979 192.875 33.0312C192.036 33.8594 190.857 34.2734 189.336 34.2734C187.815 34.2734 186.633 33.8594 185.789 33.0312C184.951 32.1979 184.531 31.0599 184.531 29.6172C184.531 28.1641 184.953 27.0234 185.797 26.1953C186.646 25.3672 187.826 24.9531 189.336 24.9531C190.867 24.9531 192.049 25.3698 192.883 26.2031C193.721 27.0365 194.141 28.1745 194.141 29.6172ZM190.68 31.75C190.862 31.526 190.997 31.2578 191.086 30.9453C191.18 30.6276 191.227 30.1901 191.227 29.6328C191.227 29.1172 191.18 28.6849 191.086 28.3359C190.992 27.987 190.862 27.7083 190.695 27.5C190.529 27.2865 190.328 27.1354 190.094 27.0469C189.859 26.9583 189.607 26.9141 189.336 26.9141C189.065 26.9141 188.823 26.9505 188.609 27.0234C188.401 27.0964 188.201 27.2422 188.008 27.4609C187.836 27.6641 187.698 27.9427 187.594 28.2969C187.495 28.651 187.445 29.0964 187.445 29.6328C187.445 30.112 187.49 30.5286 187.578 30.8828C187.667 31.2318 187.797 31.513 187.969 31.7266C188.135 31.9297 188.333 32.0781 188.562 32.1719C188.797 32.2656 189.062 32.3125 189.359 32.3125C189.615 32.3125 189.857 32.2708 190.086 32.1875C190.32 32.099 190.518 31.9531 190.68 31.75ZM205.023 34H202.297V28.6328L198.484 34H196.156V25.2266H198.883V30.0312L202.414 25.2266H205.023V34ZM204.055 21.3359C204.055 22.1849 203.763 22.8776 203.18 23.4141C202.602 23.9505 201.742 24.2188 200.602 24.2188C199.466 24.2188 198.607 23.9505 198.023 23.4141C197.44 22.8724 197.148 22.1797 197.148 21.3359H199.32C199.331 21.8516 199.43 22.237 199.617 22.4922C199.805 22.7422 200.133 22.8672 200.602 22.8672C201.076 22.8672 201.404 22.7448 201.586 22.5C201.773 22.25 201.872 21.862 201.883 21.3359H204.055Z" fill="white"/>
</svg>
