<svg width="116" height="115" viewBox="0 0 116 115" fill="none" xmlns="http://www.w3.org/2000/svg">
<circle cx="57.4961" cy="57.4961" r="36.5601" transform="rotate(33.026 57.4961 57.4961)" stroke="#DC8B00" stroke-width="10"/>
<circle cx="58.4959" cy="57.5039" r="36.5601" transform="rotate(33.026 58.4959 57.5039)" stroke="#FFA100" stroke-width="10"/>
<path d="M43.7244 93.8468C43.2777 93.675 42.8895 93.4648 42.5597 93.2159C42.2329 92.9682 41.9755 92.6809 41.7873 92.354C41.6021 92.0282 41.5 91.6681 41.4807 91.2736C41.4615 90.8791 41.5389 90.4555 41.713 90.0027C41.8964 89.5257 42.1336 89.1444 42.4248 88.8587C42.719 88.5743 43.0527 88.373 43.4259 88.2549C43.7854 88.1455 44.1651 88.1102 44.5653 88.1489C44.9654 88.1876 45.3599 88.2818 45.7488 88.4313C46.0982 88.5656 46.4057 88.7274 46.6712 88.9167C46.9367 89.1059 47.1738 89.3104 47.3823 89.5301L46.8443 90.9292L46.6119 90.8399C46.5691 90.7607 46.5162 90.6671 46.4531 90.5591C46.393 90.4523 46.311 90.3389 46.2073 90.2187C46.1084 90.104 45.9927 89.9967 45.8601 89.897C45.7288 89.7942 45.5644 89.7048 45.3669 89.6289C44.9293 89.4607 44.5383 89.4708 44.1939 89.6592C43.8536 89.8457 43.5918 90.1775 43.4084 90.6545C43.2192 91.1468 43.1955 91.5666 43.3374 91.9141C43.4824 92.2628 43.7767 92.5224 44.2203 92.693C44.4269 92.7724 44.621 92.8209 44.8026 92.8384C44.9884 92.854 45.1482 92.8509 45.2821 92.8292C45.4088 92.8081 45.5245 92.7794 45.6292 92.7429C45.7339 92.7064 45.8319 92.6691 45.9233 92.631L46.1557 92.7204L45.6178 94.1196C45.3128 94.1418 45.0056 94.1336 44.6962 94.0948C44.3886 94.0603 44.0647 93.9776 43.7244 93.8468ZM52.422 95.9188L50.4353 95.4956L49.4507 93.0641L48.9015 92.9471L48.4487 95.0723L46.7294 94.706L47.8721 89.343L49.5913 89.7093L49.1324 91.8631C49.4515 91.9277 49.6783 91.9411 49.8128 91.9032C49.9481 91.8621 50.1251 91.7184 50.344 91.4722C50.4094 91.3996 50.4894 91.3051 50.5841 91.1888C50.6788 91.0726 50.7527 90.9835 50.8058 90.9216C51.0474 90.6469 51.3003 90.4595 51.5646 90.3593C51.8328 90.2567 52.1754 90.2498 52.5925 90.3387C52.7134 90.3645 52.8404 90.3932 52.9735 90.4249C53.1097 90.4572 53.2017 90.4785 53.2495 90.4887L52.9442 91.9214L52.4762 91.8216C52.2852 91.7809 52.1222 91.7961 51.9872 91.8672C51.8554 91.939 51.7281 92.06 51.6053 92.2302C51.5021 92.3713 51.4119 92.4819 51.3349 92.562C51.2586 92.6389 51.1691 92.6997 51.0664 92.7444L52.422 95.9188ZM58.8399 96.116L57.1366 96.066L57.2349 92.713L54.7548 95.9962L53.3003 95.9535L53.4611 90.4725L55.1644 90.5224L55.0764 93.5241L57.3705 90.5871L59.0007 90.6349L58.8399 96.116ZM66.3429 96.488L64.7936 96.7259L64.5846 95.3649L61.3897 95.8555L61.5987 97.2165L60.0494 97.4544L59.6574 94.9014L60.1062 94.8324C60.2727 94.2865 60.372 93.6357 60.4041 92.8798C60.439 92.1203 60.3929 91.3271 60.266 90.5002L64.7447 89.8124L65.391 94.0209L65.9508 93.9349L66.3429 96.488ZM63.6632 94.2862L63.2029 91.2891L62.0108 91.4722C62.0476 92.0758 62.0392 92.6436 61.9859 93.1754C61.9357 93.7068 61.8481 94.1763 61.723 94.5842L63.6632 94.2862ZM72.7922 92.9728L70.8668 93.6202L68.7813 92.029L68.249 92.208L68.9415 94.2675L67.2754 94.8278L65.5278 89.6303L67.1939 89.0701L67.8958 91.1574C68.2033 91.0506 68.4053 90.9466 68.5018 90.8454C68.5972 90.7412 68.6764 90.5274 68.7394 90.204C68.7587 90.1082 68.7795 89.9862 68.8018 89.8379C68.824 89.6896 68.8423 89.5753 68.8565 89.495C68.9245 89.1356 69.0467 88.8455 69.2232 88.6247C69.4018 88.3998 69.6931 88.2194 70.0973 88.0835C70.2146 88.0441 70.3385 88.0042 70.4691 87.9637C70.6028 87.9221 70.6928 87.8936 70.7391 87.878L71.206 89.2665L70.7524 89.419C70.5673 89.4813 70.4347 89.5773 70.3548 89.7072C70.2779 89.8361 70.23 90.0051 70.211 90.2141C70.1939 90.3881 70.1727 90.5292 70.1472 90.6373C70.1207 90.7424 70.0747 90.8403 70.009 90.9311L72.7922 92.9728ZM75.8036 89.7204L75.2587 88.7162C75.0591 88.8467 74.8463 88.9937 74.6202 89.1571C74.3925 89.3177 74.2266 89.4521 74.1224 89.5605C73.9943 89.693 73.9144 89.8289 73.8827 89.9684C73.8522 90.1034 73.8782 90.2467 73.9604 90.3984C74.0148 90.4985 74.0676 90.5754 74.1189 90.629C74.1703 90.6827 74.2458 90.7195 74.3455 90.7394C74.4424 90.7609 74.5443 90.7612 74.6514 90.7401C74.7569 90.7162 74.907 90.6514 75.1015 90.5458C75.256 90.462 75.3949 90.3459 75.5181 90.1976C75.6442 90.0477 75.7393 89.8887 75.8036 89.7204ZM76.2088 90.4672C76.16 90.5752 76.0981 90.7069 76.0232 90.8623C75.9483 91.0178 75.8705 91.1508 75.7897 91.2613C75.6753 91.4122 75.5452 91.5477 75.3991 91.6676C75.2547 91.7905 75.0852 91.9047 74.8906 92.0102C74.4328 92.2586 73.9726 92.325 73.5099 92.2095C73.0472 92.0939 72.6963 91.8158 72.4572 91.3752C72.2663 91.0233 72.1889 90.693 72.2252 90.3845C72.2614 90.0759 72.3891 89.7789 72.6082 89.4933C72.8245 89.2093 73.1296 88.9252 73.5235 88.6411C73.9175 88.357 74.3349 88.0786 74.7759 87.806L74.7619 87.7802C74.6175 87.5142 74.4094 87.39 74.1377 87.4079C73.8643 87.4229 73.5159 87.5453 73.0925 87.775C72.8378 87.9132 72.5909 88.1065 72.3516 88.3548C72.1107 88.6003 71.9406 88.7816 71.8411 88.8985L71.6994 88.9754L71.0683 87.8123C71.2081 87.6809 71.4456 87.4872 71.7808 87.2313C72.1173 86.9709 72.4701 86.7406 72.8392 86.5403C73.7175 86.0637 74.425 85.8557 74.9616 85.9164C75.4995 85.9726 75.9253 86.2897 76.2389 86.8677L78.0181 90.1465L76.4859 90.9779L76.2088 90.4672ZM77.4398 23.7613C77.8475 24.0117 78.1908 24.2894 78.4696 24.5943C78.7456 24.8975 78.9463 25.227 79.0716 25.5828C79.1941 25.9369 79.2288 26.3096 79.1756 26.701C79.1224 27.0924 78.969 27.4947 78.7151 27.908C78.4477 28.3435 78.1447 28.6751 77.8063 28.9028C77.4651 29.1287 77.1002 29.2656 76.7117 29.3135C76.3384 29.3555 75.9585 29.3209 75.5722 29.2097C75.1859 29.0985 74.8152 28.9339 74.4601 28.7158C74.1411 28.5199 73.8684 28.3047 73.6419 28.0701C73.4154 27.8355 73.2198 27.5912 73.0549 27.3372L73.8394 26.0598L74.0516 26.1901C74.0791 26.2758 74.1141 26.3775 74.1564 26.4952C74.196 26.6111 74.2558 26.7377 74.3359 26.8747C74.4122 27.0056 74.5063 27.1322 74.6184 27.2545C74.7288 27.3795 74.8741 27.4975 75.0544 27.6082C75.4539 27.8535 75.8401 27.915 76.2132 27.7926C76.5818 27.6714 76.8999 27.393 77.1673 26.9575C77.4433 26.5081 77.5432 26.0996 77.4672 25.7321C77.3884 25.3628 77.1464 25.0538 76.7415 24.8051C76.5528 24.6892 76.3709 24.6061 76.1955 24.5557C76.0157 24.5064 75.858 24.4802 75.7223 24.4772C75.5939 24.4747 75.475 24.4819 75.3654 24.4986C75.2558 24.5154 75.1526 24.5341 75.0558 24.5549L74.8436 24.4246L75.628 23.1472C75.9319 23.181 76.2325 23.2453 76.5296 23.3399C76.8257 23.43 77.1291 23.5705 77.4398 23.7613ZM69.2434 20.1927L71.1265 20.9542L71.6744 23.5196L72.195 23.7301L73.0096 21.7157L74.6392 22.3747L72.5834 27.4582L70.9538 26.7992L71.7794 24.7576C71.4764 24.6386 71.2554 24.5861 71.1163 24.6001C70.976 24.6171 70.7767 24.7278 70.5184 24.9324C70.4414 24.9925 70.3462 25.0717 70.2328 25.1698C70.1194 25.2679 70.0312 25.3428 69.9681 25.3945C69.6825 25.6232 69.4009 25.7639 69.1233 25.8166C68.8414 25.8711 68.5027 25.8185 68.1074 25.6586C67.9927 25.6122 67.8726 25.5619 67.7471 25.5076C67.6186 25.4522 67.5317 25.4153 67.4864 25.3969L68.0356 24.0389L68.4792 24.2183C68.6602 24.2916 68.8234 24.3049 68.9687 24.2583C69.1109 24.2105 69.2572 24.1134 69.4077 23.9671C69.5339 23.846 69.6418 23.7528 69.7316 23.6872C69.82 23.6247 69.9187 23.5803 70.0277 23.5541L69.2434 20.1927ZM62.9617 18.8624L64.6293 19.2132L63.9388 22.4959L66.9611 19.7037L68.385 20.0032L67.2563 25.3691L65.5887 25.0184L66.2068 22.0798L63.4289 24.5641L61.833 24.2284L62.9617 18.8624ZM55.6488 17.1516L57.2156 17.1958L57.1768 18.5722L60.408 18.6632L60.4467 17.2868L62.0135 17.331L61.9408 19.9129L61.4868 19.9002C61.225 20.4073 61.0105 21.0298 60.8432 21.7675C60.6725 22.5085 60.5754 23.2971 60.5518 24.1333L56.0223 24.0057L56.1423 19.7496L55.5761 19.7336L55.6488 17.1516ZM57.8896 19.7988L57.8042 22.8298L59.0098 22.8638C59.0821 22.2634 59.1922 21.7064 59.3402 21.1927C59.4849 20.679 59.6554 20.2328 59.8517 19.8541L57.8896 19.7988ZM48.6767 19.4816L50.6856 19.1813L52.4604 21.113L53.0158 21.03L52.6946 18.881L54.4331 18.6212L55.2437 24.0443L53.5052 24.3042L53.1796 22.1262C52.8582 22.1776 52.6411 22.2446 52.5284 22.3273C52.4161 22.4131 52.3007 22.6098 52.1821 22.9172C52.1463 23.0081 52.1045 23.1246 52.0566 23.2667C52.0087 23.4088 51.9708 23.5181 51.9427 23.5947C51.8128 23.9367 51.6416 24.2009 51.4292 24.3874C51.2141 24.5775 50.8957 24.7041 50.4739 24.7671C50.3516 24.7854 50.2226 24.8031 50.0869 24.8201C49.9479 24.8375 49.8543 24.8499 49.806 24.8571L49.5895 23.4084L50.0628 23.3376C50.2559 23.3087 50.4032 23.2374 50.5047 23.1234C50.6029 23.01 50.6797 22.8521 50.735 22.6496C50.7823 22.4813 50.8279 22.3461 50.8719 22.2441C50.9164 22.1453 50.9789 22.0569 51.0594 21.9791L48.6767 19.4816ZM45.1317 22.1447L45.4887 23.2301C45.7083 23.1373 45.944 23.0307 46.1956 22.9102C46.4483 22.7928 46.6355 22.6901 46.7573 22.6021C46.907 22.4946 47.0099 22.3751 47.0661 22.2436C47.1201 22.1161 47.1202 21.9705 47.0663 21.8066C47.0307 21.6984 46.9924 21.6133 46.9515 21.5513C46.9106 21.4894 46.8428 21.4397 46.7483 21.4023C46.6568 21.3638 46.5565 21.3454 46.4474 21.3471C46.3393 21.3518 46.1801 21.3887 45.9698 21.4579C45.8028 21.5128 45.6455 21.6022 45.4978 21.7262C45.347 21.8512 45.225 21.9907 45.1317 22.1447ZM44.8663 21.3376C44.9336 21.2401 45.0179 21.1216 45.1194 20.982C45.2208 20.8424 45.3211 20.7254 45.4203 20.6311C45.5598 20.503 45.7121 20.3929 45.8772 20.301C46.0412 20.2059 46.2284 20.1238 46.4387 20.0546C46.9334 19.8919 47.3981 19.9087 47.8328 20.105C48.2674 20.3013 48.5631 20.6375 48.7197 21.1137C48.8448 21.4941 48.8619 21.8328 48.7712 22.1299C48.6804 22.4271 48.5018 22.6966 48.2352 22.9384C47.9718 23.1793 47.6209 23.4044 47.1826 23.6136C46.7442 23.8229 46.2838 24.0223 45.8013 24.2118L45.8104 24.2397C45.905 24.5273 46.0876 24.6865 46.3582 24.7175C46.6298 24.7515 46.9945 24.6932 47.4521 24.5427C47.7274 24.4522 48.0048 24.3061 48.2846 24.1044C48.5654 23.9059 48.7652 23.7579 48.884 23.6606L49.037 23.6103L49.4504 24.8673C49.2894 24.9716 49.0212 25.1198 48.6457 25.3118C48.2682 25.508 47.88 25.6716 47.4811 25.8028C46.5317 26.115 45.7985 26.1934 45.2813 26.038C44.7621 25.8866 44.3998 25.4986 44.1943 24.874L43.0288 21.3303L44.6847 20.7857L44.8663 21.3376Z" fill="white"/>
<rect x="71.7786" y="36" width="3.614" height="50.8992" rx="1.807" transform="rotate(37.2068 71.7786 36)" fill="#FFA100"/>
<circle cx="66" cy="62" r="5" fill="#FFA100"/>
<circle cx="50" cy="52" r="5" fill="#FFA100"/>
</svg>
