<svg width="71" height="68" viewBox="0 0 71 68" fill="none" xmlns="http://www.w3.org/2000/svg">
<g filter="url(#filter0_d_49_33)">
<path d="M31.3615 2.76388C32.5589 -0.921364 37.7726 -0.921374 38.97 2.76387L43.585 16.9675C44.1205 18.6156 45.6564 19.7315 47.3893 19.7315H62.3239C66.1988 19.7315 67.8099 24.6899 64.675 26.9675L52.5927 35.7459C51.1907 36.7644 50.6041 38.5699 51.1396 40.218L55.7546 54.4217C56.952 58.1069 52.7341 61.1714 49.5993 58.8938L37.5169 50.1155C36.115 49.0969 34.2166 49.0969 32.8146 50.1155L20.7323 58.8938C17.5974 61.1714 13.3795 58.1069 14.5769 54.4217L19.192 40.218C19.7275 38.5699 19.1408 36.7644 17.7389 35.7459L5.65653 26.9675C2.52167 24.6899 4.13277 19.7315 8.00766 19.7315H22.9423C24.6752 19.7315 26.211 18.6156 26.7465 16.9675L31.3615 2.76388Z" fill="#FFD900"/>
<path d="M31.8367 2.91797C32.8845 -0.306278 37.447 -0.306277 38.4949 2.91797L43.1091 17.1221C43.7116 18.9762 45.4399 20.2314 47.3894 20.2314H62.324C65.7144 20.2315 67.1244 24.5706 64.3816 26.5635L52.2986 35.3418C50.7218 36.4876 50.0617 38.5182 50.6638 40.3721L55.2791 54.5762C56.3268 57.8007 52.6363 60.4821 49.8933 58.4893L37.8113 49.7109C36.2341 48.565 34.0975 48.565 32.5203 49.7109L20.4382 58.4893C17.6952 60.482 14.0048 57.8007 15.0525 54.5762L19.6677 40.3721C20.2698 38.5182 19.6098 36.4876 18.033 35.3418L5.94995 26.5635C3.2071 24.5706 4.61714 20.2315 8.00757 20.2314H22.9421C24.8917 20.2314 26.62 18.9762 27.2224 17.1221L31.8367 2.91797Z" stroke="black"/>
</g>
<defs>
<filter id="filter0_d_49_33" x="0" y="0" width="70.3315" height="67.6758" filterUnits="userSpaceOnUse" color-interpolation-filters="sRGB">
<feFlood flood-opacity="0" result="BackgroundImageFix"/>
<feColorMatrix in="SourceAlpha" type="matrix" values="0 0 0 0 0 0 0 0 0 0 0 0 0 0 0 0 0 0 127 0" result="hardAlpha"/>
<feOffset dy="4"/>
<feGaussianBlur stdDeviation="2"/>
<feComposite in2="hardAlpha" operator="out"/>
<feColorMatrix type="matrix" values="0 0 0 0 0 0 0 0 0 0 0 0 0 0 0 0 0 0 0.25 0"/>
<feBlend mode="normal" in2="BackgroundImageFix" result="effect1_dropShadow_49_33"/>
<feBlend mode="normal" in="SourceGraphic" in2="effect1_dropShadow_49_33" result="shape"/>
</filter>
</defs>
</svg>
